<?xml version="1.0" standalone="no"?>
<!DOCTYPE svg PUBLIC "-//W3C//DTD SVG 20010904//EN"
 "http://www.w3.org/TR/2001/REC-SVG-20010904/DTD/svg10.dtd">
<svg version="1.0" xmlns="http://www.w3.org/2000/svg"
 width="1102.000000pt" height="1098.000000pt" viewBox="0 0 1102.000000 1098.000000"
 preserveAspectRatio="xMidYMid meet">

<g transform="translate(0.000000,1098.000000) scale(0.100000,-0.100000)"
fill="#000000" stroke="none">
<path d="M4795 8049 c-260 -24 -587 -94 -845 -179 -453 -151 -946 -414 -1290
-690 -264 -211 -867 -482 -1484 -666 -67 -20 -123 -38 -124 -39 -2 -2 108
-173 244 -379 215 -328 248 -374 259 -359 6 10 175 267 374 571 200 303 369
552 377 552 12 0 14 -124 14 -805 l0 -805 -130 0 -130 0 -2 425 -3 424 -131
-212 c-312 -504 -377 -607 -383 -607 -3 1 -54 78 -112 173 -58 95 -172 281
-255 413 l-149 241 -3 -428 -2 -429 -125 0 -125 0 0 578 0 579 -128 -28 c-112
-25 -384 -73 -542 -96 -64 -9 -59 1 -84 -213 -22 -190 -23 -1017 -1 -1205 101
-868 400 -1686 878 -2405 223 -337 463 -626 743 -900 893 -871 2032 -1404
3279 -1535 207 -22 697 -30 915 -16 964 65 1886 376 2675 903 322 215 558 409
846 697 453 453 760 881 1039 1446 304 616 466 1178 547 1895 20 183 26 961 7
980 -7 7 -40 5 -110 -6 -55 -8 -200 -18 -326 -21 l-228 -6 0 -163 0 -164 -80
0 -80 0 0 169 c0 192 9 174 -95 186 -33 4 -112 15 -175 26 -63 10 -118 19
-122 19 -5 0 -8 -90 -8 -200 l0 -200 -75 0 -75 0 -2 221 -3 221 -145 43 c-143
43 -338 114 -475 173 -43 19 -74 27 -81 21 -6 -5 -24 -35 -40 -66 -25 -50 -29
-69 -29 -138 0 -66 5 -90 27 -137 54 -115 160 -188 284 -196 62 -4 79 -1 129
22 31 14 74 39 95 56 l38 30 37 -51 c20 -28 39 -57 41 -64 7 -17 -63 -76 -128
-107 -248 -121 -555 11 -656 283 -44 120 -37 246 21 368 17 37 31 70 31 74 1
4 -41 30 -91 57 l-93 50 0 -30 0 -30 -210 0 -210 0 0 -120 0 -120 180 0 180 0
0 -75 0 -75 -180 0 -180 0 0 -130 0 -130 210 0 210 0 0 -75 0 -75 -285 0 -285
0 0 475 0 475 202 0 202 0 -137 84 c-259 160 -508 338 -811 579 -616 490
-1211 758 -1896 852 -138 19 -579 28 -725 14z m-1258 -1834 c162 -352 328
-713 368 -803 l74 -163 -137 3 -136 3 -51 115 -52 115 -373 0 -373 0 -52 -115
-51 -115 -137 -3 -136 -3 38 83 c21 46 72 157 114 248 41 91 178 388 303 660
125 272 240 523 256 558 16 35 34 62 39 60 6 -2 144 -292 306 -643z m3082
-135 c196 -426 362 -787 368 -802 l13 -28 -138 0 -137 0 -52 118 -52 117 -371
0 -371 0 -52 -117 -52 -118 -137 0 -137 0 18 43 c10 23 166 362 346 752 180
391 338 734 352 763 13 30 28 52 34 50 6 -2 171 -352 368 -778z m-2219 415 l0
-335 340 0 340 0 0 335 0 335 125 0 125 0 0 -790 0 -790 -125 0 -125 0 0 330
0 330 -340 0 -340 0 0 -330 0 -330 -125 0 -125 0 0 790 0 790 125 0 125 0 0
-335z m3455 -55 l0 -75 -127 -3 -128 -3 0 -394 0 -395 -75 0 -75 0 0 395 0
394 -127 3 -128 3 -3 64 c-2 35 -1 70 2 78 5 11 63 13 333 11 l328 -3 0 -75z"/>
<path d="M3095 6009 c-71 -159 -131 -294 -133 -300 -2 -5 101 -9 268 -9 169 0
270 4 268 10 -13 37 -264 590 -268 590 -3 0 -63 -131 -135 -291z"/>
<path d="M6115 6009 c-71 -159 -131 -294 -133 -300 -2 -5 101 -9 268 -9 169 0
270 4 268 10 -13 37 -264 590 -268 590 -3 0 -63 -131 -135 -291z"/>
</g>
</svg>
